# xmcd
#
# Track frame offsets:
#	150
#	18207
#	38169
#	51257
#	73535
#	89417
#	107227
#	123740
#	142778
#	160977
#	177097
#
# Disc length: 2517 seconds
#
# Revision: 1
# Processed by: cddbd v1.5.1PL0 Copyright (c) Steve Scherf et al.
# Submitted via: EasyCDDAExtractor 7.0.5.1
#
DISCID=9009d30b
DTITLE=Cezary Makiewicz - Letni Ogród
DYEAR=2000
DGENRE=Country
TTITLE0=Ona ka¿dego dnia
TTITLE1=Kraina Tysi¹ca Jezior
TTITLE2=Kocha - nie kocha
TTITLE3=Z Tob¹ dzieñ i noc
TTITLE4=Poziomek smak
TTITLE5=Gdy wiem, ¿e na mnie czekasz
TTITLE6=Bar dla takich jak ja
TTITLE7=Polna droga
TTITLE8=Jutro zostawiê Ciê
TTITLE9=Za siedem gór, za siedem rzek
TTITLE10=Wszystkie drogi prowadz¹ do Mr¹gowa (instr.)
EXTD=
EXTT0=
EXTT1=
EXTT2=
EXTT3=
EXTT4=
EXTT5=
EXTT6=
EXTT7=
EXTT8=
EXTT9=
EXTT10=
PLAYORDER=
